<?xml version="1.0" encoding="UTF-8"?>
<svg id="Livello_1" data-name="Livello 1" xmlns="http://www.w3.org/2000/svg" viewBox="0 0 120.5 120.5">
  <defs>
    <style>
      .cls-1 {
        fill: #f6ae22;
      }

      .cls-2 {
        fill: #f6a128;
      }

      .cls-3 {
        fill: #fff;
      }

      .cls-4 {
        fill: #f5921e;
      }

      .cls-5 {
        fill: #ffcb2e;
      }

      .cls-6 {
        fill: #fdfcf9;
      }

      .cls-7 {
        fill: #f6a32c;
      }

      .cls-8 {
        fill: #ececec;
      }

      .cls-9 {
        fill: #fefaf6;
      }

      .cls-10 {
        fill: #e8e8e8;
      }
    </style>
  </defs>
  <path class="cls-5" d="M115.25,60.25h5c0,1.76-.09,3.5-.24,5.23l-4.98-.44c.14-1.58.22-3.17.22-4.79Z"/>
  <path d="M120.25,60.25h-5c0-1.62-.08-3.21-.22-4.79l4.98-.44c.15,1.73.24,3.47.24,5.23Z"/>
  <path class="cls-5" d="M120.01,55.02l-4.98.44c-.14-1.61-.35-3.19-.62-4.76l4.92-.87c.3,1.71.53,3.44.68,5.19Z"/>
  <path d="M115.03,65.04l4.98.44c-.15,1.75-.38,3.48-.68,5.19l-4.92-.87c.27-1.57.48-3.15.62-4.76Z"/>
  <path d="M119.33,49.83l-4.92.87c-.28-1.59-.62-3.15-1.03-4.69l4.83-1.29c.45,1.68.82,3.38,1.12,5.11Z"/>
  <path class="cls-5" d="M114.41,69.8l4.92.87c-.3,1.73-.67,3.43-1.12,5.11l-4.83-1.29c.41-1.54.75-3.1,1.03-4.69Z"/>
  <path class="cls-5" d="M118.21,44.72l-4.83,1.29c-.42-1.55-.89-3.08-1.44-4.58l4.7-1.71c.6,1.64,1.12,3.3,1.57,5Z"/>
  <path d="M113.38,74.49l4.83,1.29c-.45,1.7-.97,3.36-1.57,5l-4.7-1.71c.55-1.5,1.02-3.03,1.44-4.58Z"/>
  <path d="M116.64,39.72l-4.7,1.71c-.54-1.51-1.17-2.98-1.84-4.42l4.53-2.12c.74,1.58,1.41,3.19,2.01,4.83Z"/>
  <path class="cls-5" d="M111.94,79.07l4.7,1.71c-.6,1.64-1.27,3.25-2.01,4.83l-4.53-2.12c.67-1.44,1.3-2.91,1.84-4.42Z"/>
  <path d="M110.25,60.25h5c0,1.62-.08,3.21-.22,4.79l-4.98-.43c.12-1.44.2-2.89.2-4.36Z"/>
  <path class="cls-5" d="M115.25,60.25h-5c0-1.47-.08-2.92-.2-4.36l4.98-.43c.14,1.58.22,3.17.22,4.79Z"/>
  <path d="M115.03,55.46l-4.98.43c-.13-1.46-.32-2.9-.57-4.32l4.93-.87c.27,1.57.48,3.15.62,4.76Z"/>
  <path class="cls-5" d="M110.05,64.61l4.98.43c-.14,1.61-.35,3.19-.62,4.76l-4.93-.87c.25-1.42.44-2.86.57-4.32Z"/>
  <path class="cls-5" d="M114.63,34.89l-4.53,2.12c-.68-1.46-1.43-2.88-2.22-4.26l4.33-2.5c.87,1.51,1.68,3.06,2.42,4.64Z"/>
  <path d="M110.1,83.49l4.53,2.12c-.74,1.58-1.55,3.13-2.42,4.64l-4.33-2.5c.79-1.38,1.54-2.8,2.22-4.26Z"/>
  <path class="cls-5" d="M114.41,50.7l-4.93.87c-.25-1.44-.56-2.87-.93-4.26l4.83-1.3c.41,1.54.75,3.1,1.03,4.69Z"/>
  <path d="M109.48,68.93l4.93.87c-.28,1.59-.62,3.15-1.03,4.69l-4.83-1.3c.37-1.39.68-2.82.93-4.26Z"/>
  <path d="M113.38,46.01l-4.83,1.3c-.38-1.41-.81-2.8-1.3-4.16l4.69-1.72c.55,1.5,1.02,3.03,1.44,4.58Z"/>
  <path class="cls-5" d="M108.55,73.19l4.83,1.3c-.42,1.55-.89,3.08-1.44,4.58l-4.69-1.72c.49-1.36.92-2.75,1.3-4.16Z"/>
  <path d="M112.21,30.25l-4.33,2.5c-.81-1.38-1.67-2.73-2.58-4.04l4.09-2.87c1,1.43,1.94,2.9,2.82,4.41Z"/>
  <path class="cls-5" d="M107.88,87.75l4.33,2.5c-.88,1.51-1.82,2.98-2.82,4.41l-4.09-2.87c.91-1.31,1.77-2.66,2.58-4.04Z"/>
  <path class="cls-5" d="M111.94,41.43l-4.69,1.72c-.5-1.38-1.07-2.72-1.68-4.03l4.53-2.11c.67,1.44,1.3,2.91,1.84,4.42Z"/>
  <path d="M107.25,77.35l4.69,1.72c-.54,1.51-1.17,2.98-1.84,4.42l-4.53-2.11c.61-1.31,1.18-2.65,1.68-4.03Z"/>
  <path d="M110.05,55.89c.12,1.44.2,2.89.2,4.36s-.08,2.92-.2,4.36c-.13,1.46-.32,2.9-.57,4.32-.25,1.44-.56,2.87-.93,4.26-.38,1.41-.81,2.8-1.3,4.16-.5,1.38-1.07,2.72-1.68,4.03-.62,1.32-1.3,2.61-2.02,3.87-.73,1.26-1.52,2.48-2.35,3.67-.84,1.2-1.72,2.35-2.65,3.46-.94,1.12-1.92,2.2-2.94,3.23-1.03,1.02-2.11,2-3.23,2.94-1.11.93-2.26,1.81-3.46,2.65-1.19.83-2.41,1.62-3.67,2.35-1.26.72-2.55,1.4-3.87,2.02-1.31.61-2.65,1.18-4.03,1.68-1.36.49-2.75.92-4.16,1.3-1.39.37-2.82.68-4.26.93-1.42.25-2.86.44-4.32.57-1.44.12-2.89.2-4.36.2s-2.92-.08-4.36-.2c-1.46-.13-2.9-.32-4.32-.57-1.44-.25-2.87-.56-4.26-.93-1.41-.38-2.8-.81-4.16-1.3-1.38-.5-2.72-1.07-4.03-1.68-1.32-.62-2.61-1.3-3.87-2.02-1.26-.73-2.48-1.52-3.67-2.35-1.2-.84-2.35-1.72-3.46-2.65-1.12-.94-2.2-1.92-3.23-2.94-1.02-1.03-2-2.11-2.94-3.23-.93-1.11-1.81-2.26-2.65-3.46-.83-1.19-1.62-2.41-2.35-3.67-.72-1.26-1.4-2.55-2.02-3.87-.61-1.31-1.18-2.65-1.68-4.03-.49-1.36-.92-2.75-1.3-4.16-.37-1.39-.68-2.82-.93-4.26-.25-1.42-.44-2.86-.57-4.32-.12-1.44-.2-2.89-.2-4.36s.08-2.92.2-4.36c.13-1.46.32-2.9.57-4.32.25-1.44.56-2.87.93-4.26.38-1.41.81-2.8,1.3-4.16.5-1.38,1.07-2.72,1.68-4.03.62-1.32,1.3-2.61,2.02-3.87.73-1.26,1.52-2.48,2.35-3.67.84-1.2,1.72-2.35,2.65-3.46.94-1.12,1.92-2.2,2.94-3.23,1.03-1.02,2.11-2,3.23-2.94,1.11-.93,2.26-1.81,3.46-2.65,1.19-.83,2.41-1.62,3.67-2.35,1.26-.72,2.55-1.4,3.87-2.02,1.31-.61,2.65-1.18,4.03-1.68,1.36-.49,2.75-.92,4.16-1.3,1.39-.37,2.82-.68,4.26-.93,1.42-.25,2.86-.44,4.32-.57,1.44-.12,2.89-.2,4.36-.2s2.92.08,4.36.2c1.46.13,2.9.32,4.32.57,1.44.25,2.87.56,4.26.93,1.41.38,2.8.81,4.16,1.3,1.38.5,2.72,1.07,4.03,1.68,1.32.62,2.61,1.3,3.87,2.02,1.26.73,2.48,1.52,3.67,2.35,1.2.84,2.35,1.72,3.46,2.65,1.12.94,2.2,1.92,3.23,2.94,1.02,1.03,2,2.11,2.94,3.23.93,1.11,1.81,2.26,2.65,3.46.83,1.19,1.62,2.41,2.35,3.67.72,1.26,1.4,2.55,2.02,3.87.61,1.31,1.18,2.65,1.68,4.03.49,1.36.92,2.75,1.3,4.16.37,1.39.68,2.82.93,4.26.25,1.42.44,2.86.57,4.32ZM87.75,35.11l-1.15,1.49-.91-.7c6.13-8.17-.27-20.45-11.35-19.31-6.32.65-10.67,6.22-10.67,12.19h-1.25v-.63h-27.02c-.43,0-1.64.89-1.95,1.26-2.21,2.6-.09,8.86,1.47,11.53,2.43,4.18,4.47,4.74,8.05,7.31,4.81,3.45,5.45,11.88,9.56,15.61,1.83,1.66,4.59,2.15,5.06,4.93l-.03,24.94c-.66,2.23-2.25,3.26-4.51,3.52-3.4.39-6.9.22-10.25,1.16-2.95.83-3.41,2.47-.22,3.44,6.08,1.83,16.37,1.54,22.78,1.29,3.88-.15,9.39-.14,13.04-1.42,2.02-.7,2.53-2.08.3-2.99-3.21-1.33-7.76-1.09-11.19-1.48-2.38-.27-4.24-1.49-4.56-4.01l.02-24.45c.48-2.78,3.24-3.27,5.07-4.93,4.18-3.8,4.41-11.54,9.38-15.43,1.06-.83,2.49-1.44,3.61-2.28,3.51-2.62,5.98-6.72,6.72-11.04ZM42.8,26.89l-3.83-7.5c-.82-.51-1.44-.02-1.08.9l3.32,6.32c.34.5,1.06.23,1.59.28Z"/>
  <path d="M110.1,37.01l-4.53,2.11c-.62-1.32-1.3-2.61-2.02-3.87l4.33-2.5c.79,1.38,1.54,2.8,2.22,4.26Z"/>
  <path class="cls-5" d="M105.57,81.38l4.53,2.11c-.68,1.46-1.43,2.88-2.22,4.26l-4.33-2.5c.72-1.26,1.4-2.55,2.02-3.87Z"/>
  <path class="cls-5" d="M109.39,25.84l-4.09,2.87c-.92-1.31-1.9-2.58-2.92-3.81l3.83-3.21c1.12,1.33,2.18,2.72,3.18,4.15Z"/>
  <path d="M105.3,91.79l4.09,2.87c-1,1.43-2.06,2.82-3.18,4.15l-3.83-3.21c1.02-1.23,2-2.5,2.92-3.81Z"/>
  <path class="cls-5" d="M107.88,32.75l-4.33,2.5c-.73-1.26-1.52-2.48-2.35-3.67l4.1-2.87c.91,1.31,1.77,2.66,2.58,4.04Z"/>
  <path d="M103.55,85.25l4.33,2.5c-.81,1.38-1.67,2.73-2.58,4.04l-4.1-2.87c.83-1.19,1.62-2.41,2.35-3.67Z"/>
  <path d="M106.21,21.69l-3.83,3.21c-1.03-1.22-2.11-2.41-3.24-3.54l3.54-3.54c1.23,1.24,2.4,2.53,3.53,3.87Z"/>
  <path class="cls-5" d="M102.38,95.6l3.83,3.21c-1.13,1.34-2.3,2.63-3.53,3.87l-3.54-3.54c1.13-1.13,2.21-2.32,3.24-3.54Z"/>
  <path d="M105.3,28.71l-4.1,2.87c-.84-1.2-1.72-2.35-2.65-3.46l3.83-3.22c1.02,1.23,2,2.5,2.92,3.81Z"/>
  <path class="cls-5" d="M101.2,88.92l4.1,2.87c-.92,1.31-1.9,2.58-2.92,3.81l-3.83-3.22c.93-1.11,1.81-2.26,2.65-3.46Z"/>
  <path class="cls-5" d="M102.68,17.82l-3.54,3.54c-1.13-1.13-2.32-2.21-3.54-3.24l3.21-3.83c1.34,1.13,2.63,2.3,3.87,3.53Z"/>
  <path d="M99.14,99.14l3.54,3.54c-1.24,1.23-2.53,2.4-3.87,3.53l-3.21-3.83c1.22-1.03,2.41-2.11,3.54-3.24Z"/>
  <path class="cls-5" d="M102.38,24.9l-3.83,3.22c-.94-1.12-1.92-2.2-2.94-3.23l3.53-3.53c1.13,1.13,2.21,2.32,3.24,3.54Z"/>
  <path d="M98.55,92.38l3.83,3.22c-1.03,1.22-2.11,2.41-3.24,3.54l-3.53-3.53c1.02-1.03,2-2.11,2.94-3.23Z"/>
  <path d="M99.14,21.36l-3.53,3.53c-1.03-1.02-2.11-2-3.23-2.94l3.22-3.83c1.22,1.03,2.41,2.11,3.54,3.24Z"/>
  <path class="cls-5" d="M95.61,95.61l3.53,3.53c-1.13,1.13-2.32,2.21-3.54,3.24l-3.22-3.83c1.12-.94,2.2-1.92,3.23-2.94Z"/>
  <path d="M98.81,14.29l-3.21,3.83c-1.23-1.02-2.5-2-3.81-2.92l2.87-4.09c1.43,1,2.82,2.06,4.15,3.18Z"/>
  <path class="cls-5" d="M95.6,102.38l3.21,3.83c-1.33,1.12-2.72,2.18-4.15,3.18l-2.87-4.09c1.31-.92,2.58-1.9,3.81-2.92Z"/>
  <path class="cls-5" d="M95.6,18.12l-3.22,3.83c-1.11-.93-2.26-1.81-3.46-2.65l2.87-4.1c1.31.92,2.58,1.9,3.81,2.92Z"/>
  <path d="M92.38,98.55l3.22,3.83c-1.23,1.02-2.5,2-3.81,2.92l-2.87-4.1c1.2-.84,2.35-1.72,3.46-2.65Z"/>
  <path class="cls-5" d="M94.66,11.11l-2.87,4.09c-1.31-.91-2.66-1.77-4.04-2.58l2.5-4.33c1.51.88,2.98,1.82,4.41,2.82Z"/>
  <path d="M91.79,105.3l2.87,4.09c-1.43,1-2.9,1.94-4.41,2.82l-2.5-4.33c1.38-.81,2.73-1.67,4.04-2.58Z"/>
  <path d="M91.79,15.2l-2.87,4.1c-1.19-.83-2.41-1.62-3.67-2.35l2.5-4.33c1.38.81,2.73,1.67,4.04,2.58Z"/>
  <path class="cls-5" d="M88.92,101.2l2.87,4.1c-1.31.91-2.66,1.77-4.04,2.58l-2.5-4.33c1.26-.73,2.48-1.52,3.67-2.35Z"/>
  <path d="M90.25,8.29l-2.5,4.33c-1.38-.79-2.8-1.54-4.26-2.22l2.12-4.53c1.58.74,3.13,1.55,4.64,2.42Z"/>
  <path class="cls-5" d="M87.75,107.88l2.5,4.33c-1.51.87-3.06,1.68-4.64,2.42l-2.12-4.53c1.46-.68,2.88-1.43,4.26-2.22Z"/>
  <path class="cls-5" d="M87.75,12.62l-2.5,4.33c-1.26-.72-2.55-1.4-3.87-2.02l2.11-4.53c1.46.68,2.88,1.43,4.26,2.22Z"/>
  <path class="cls-3" d="M86.6,36.6l1.15-1.49c-.74,4.32-3.21,8.42-6.72,11.04-1.12.84-2.55,1.45-3.61,2.28-4.97,3.89-5.2,11.63-9.38,15.43-1.83,1.66-4.59,2.15-5.07,4.93l-.02,24.45c.32,2.52,2.18,3.74,4.56,4.01,3.43.39,7.98.15,11.19,1.48,2.23.91,1.72,2.29-.3,2.99-3.65,1.28-9.16,1.27-13.04,1.42-6.41.25-16.7.54-22.78-1.29-3.19-.97-2.73-2.61.22-3.44,3.35-.94,6.85-.77,10.25-1.16,2.26-.26,3.85-1.29,4.51-3.52l.03-24.94c-.47-2.78-3.23-3.27-5.06-4.93-4.11-3.73-4.75-12.16-9.56-15.61-3.58-2.57-5.62-3.13-8.05-7.31-1.56-2.67-3.68-8.93-1.47-11.53.31-.37,1.52-1.26,1.95-1.26h27.02v1.25h-26.31c-.93,0-1.96,1.05-2.15,1.95-.86,4.04,2.32,10.11,5.27,12.78,1.92,1.74,4.38,2.51,6.06,4.47,2.88,3.34,3.93,6.9,5.68,10.74,2.27,4.97,6.89,4.55,8.04,9.63-.46,7.78.69,16.41.03,24.09-.32,3.76-3.12,5.27-6.52,5.62-2.14.22-8.64.31-10.25,1.34-.08.05-.24.2-.18.27,1.83.49,3.73.85,5.62,1.07,7.63.89,17.51.9,25.15,0,1.89-.22,3.78-.59,5.62-1.07-.9-.73-2.53-.86-3.69-1.04-2.3-.36-4.5-.34-6.75-.57-3.41-.35-6.19-1.86-6.52-5.62-.66-7.68.5-16.31.03-24.09,1.13-5.08,5.82-4.66,8.04-9.63,1.45-3.23,2.64-6.93,4.86-9.79.74-.96,1.6-1.82,2.62-2.55,3.64-2.59,6.93-4.31,8.47-9.02l1.06-1.38Z"/>
  <path d="M85.25,103.55l2.5,4.33c-1.38.79-2.8,1.54-4.26,2.22l-2.11-4.53c1.32-.62,2.61-1.3,3.87-2.02Z"/>
  <path class="cls-9" d="M85.35,23.14c5.92,10.47-6.39,21.42-16.03,14.44-5.46-3.95-5.98-12.17-1.13-16.87,5.05-4.88,13.7-3.69,17.16,2.43ZM85.26,27.88c.68-.69-.98-4.45-1.66-5.04-.16-.14-.36-.2-.58-.22-.69.51-4.67,4.25-4.71,4.72-.06.71.61.77,1.14.81,1.26.11,3.58.11,4.83,0,.31-.02.75-.03.98-.27ZM84.86,32.3c.15-.39,1.01-2.9.31-2.9h-6.69c-.23.63-.2.8.18,1.33.39.56,3.1,3.27,3.65,3.66,1.4.99,2.1-.93,2.55-2.09ZM81.7,21.99c.23-.39.3-.7-.01-1.08-.5-.59-3.75-1.91-4.53-1.82-.17.02-.47.16-.56.3-.16.28-.19,5.79-.08,6.34.13.7.77.52,1.26.19.28-.19,3.78-3.69,3.92-3.93ZM79.42,37.75c.87-.34,3.07-1.23,2.28-2.38l-4.01-4.02c-.21-.19-.43-.22-.69-.14-.15.04-.33.19-.4.33-.14.31-.18,5.36-.09,5.99.18,1.39,2,.56,2.91.22ZM75.26,25.55c.18-.93.1-4.3.01-5.36-.02-.28-.02-.73-.22-.93-.43-.43-2.25.19-2.81.41-.53.2-2.5,1.18-2.5,1.78,0,.46,3.26,3.75,3.83,4.2.58.46,1.49.98,1.69-.1ZM75.26,37.51c.15-.99.15-4.53.02-5.53-.08-.55-.35-.94-.96-.77l-4.59,4.7c0,.96,4.05,2.55,4.91,2.42.42-.06.56-.44.62-.82ZM73.14,30.57c.3-.23.19-1.17-.1-1.17h-6.43c-.65.82-.02,2.3.37,3.2.32.76,1.15,2.66,2.14,1.98l4.02-4.01ZM72.68,28.14c.7-.13.78-.79.46-1.34-.2-.34-3.32-3.41-3.76-3.75-.23-.18-.49-.45-.81-.44-.99.03-2.67,4.31-2.2,5.33.3.16.62.19.95.21,1.12.08,4.37.18,5.36-.01Z"/>
  <path d="M86.6,36.6l-1.06,1.38c-1.54,4.71-4.83,6.43-8.47,9.02-1.02.73-1.88,1.59-2.62,2.55l-1.02-.78c1.06-1.35,2.28-2.56,3.62-3.48-6.17.62-12.09.08-17.78-2.47-3.46-1.55-6.51-4.09-10.41-4.67-1.29-2.52-2.77-4.97-4.04-7.51v-1.24h17.6v-.62h1.25c0,1.37.23,2.75.71,4.1,2.84,7.96,12.97,10.63,19.37,5.09.75-.65,1.4-1.34,1.94-2.07l.91.7Z"/>
  <path class="cls-7" d="M74.34,16.59c11.08-1.14,17.48,11.14,11.35,19.31-.54.73-1.19,1.42-1.94,2.07-6.4,5.54-16.53,2.87-19.37-5.09-.48-1.35-.71-2.73-.71-4.1,0-5.97,4.35-11.54,10.67-12.19ZM69.32,37.58c9.64,6.98,21.95-3.97,16.03-14.44-3.46-6.12-12.11-7.31-17.16-2.43-4.85,4.7-4.33,12.92,1.13,16.87Z"/>
  <path class="cls-5" d="M85.61,5.87l-2.12,4.53c-1.44-.67-2.91-1.3-4.42-1.84l1.71-4.7c1.64.6,3.25,1.27,4.83,2.01Z"/>
  <path d="M83.49,110.1l2.12,4.53c-1.58.74-3.19,1.41-4.83,2.01l-1.71-4.7c1.51-.54,2.98-1.17,4.42-1.84Z"/>
  <path class="cls-2" d="M83.6,22.84c.68.59,2.34,4.35,1.66,5.04-.23.24-.67.25-.98.27-1.25.11-3.57.11-4.83,0-.53-.04-1.2-.1-1.14-.81.04-.47,4.02-4.21,4.71-4.72.22.02.42.08.58.22ZM79.01,27.43c.2.17,1.74-.32,1.61-.89-.19-.17-1.74.32-1.61.89Z"/>
  <path class="cls-2" d="M85.17,29.4c.7,0-.16,2.51-.31,2.9-.45,1.16-1.15,3.08-2.55,2.09-.55-.39-3.26-3.1-3.65-3.66-.38-.53-.41-.7-.18-1.33h6.69ZM79.19,29.93c.02.71.91.75,1.43.71-.26-.54-.85-.77-1.43-.71Z"/>
  <path d="M83.49,10.4l-2.11,4.53c-1.31-.61-2.65-1.18-4.03-1.68l1.72-4.69c1.51.54,2.98,1.17,4.42,1.84Z"/>
  <path class="cls-5" d="M81.38,105.57l2.11,4.53c-1.44.67-2.91,1.3-4.42,1.84l-1.72-4.69c1.38-.5,2.72-1.07,4.03-1.68Z"/>
  <path class="cls-2" d="M81.69,20.91c.31.38.24.69.01,1.08-.14.24-3.64,3.74-3.92,3.93-.49.33-1.13.51-1.26-.19-.11-.55-.08-6.06.08-6.34.09-.14.39-.28.56-.3.78-.09,4.03,1.23,4.53,1.82ZM77.05,25.47c.7-.33.81-.89.71-1.61-.62.3-.78.97-.71,1.61Z"/>
  <path class="cls-2" d="M81.7,35.37c.79,1.15-1.41,2.04-2.28,2.38-.91.34-2.73,1.17-2.91-.22-.09-.63-.05-5.68.09-5.99.07-.14.25-.29.4-.33.26-.08.48-.05.69.14l4.01,4.02ZM77.94,33.32c.07-.57-.17-1.17-.71-1.42-.04.52.01,1.41.71,1.42Z"/>
  <path d="M80.78,3.86l-1.71,4.7c-1.5-.55-3.03-1.02-4.58-1.44l1.29-4.83c1.69.45,3.36.97,5,1.57Z"/>
  <path class="cls-5" d="M79.07,111.94l1.71,4.7c-1.64.6-3.3,1.12-5,1.57l-1.29-4.83c1.55-.42,3.08-.89,4.58-1.44Z"/>
  <path class="cls-10" d="M80.62,26.54c.13.57-1.41,1.06-1.61.89-.13-.57,1.42-1.06,1.61-.89Z"/>
  <path class="cls-8" d="M80.62,30.64c-.52.04-1.41,0-1.43-.71.58-.06,1.17.17,1.43.71Z"/>
  <path class="cls-5" d="M79.07,8.56l-1.72,4.69c-1.36-.49-2.75-.92-4.16-1.3l1.3-4.83c1.55.42,3.08.89,4.58,1.44Z"/>
  <path d="M77.35,107.25l1.72,4.69c-1.5.55-3.03,1.02-4.58,1.44l-1.3-4.83c1.41-.38,2.8-.81,4.16-1.3Z"/>
  <path class="cls-8" d="M77.23,31.9c.54.25.78.85.71,1.42-.7-.01-.75-.9-.71-1.42Z"/>
  <path class="cls-8" d="M77.76,23.86c.1.72-.01,1.28-.71,1.61-.07-.64.09-1.31.71-1.61Z"/>
  <path class="cls-5" d="M75.78,2.29l-1.29,4.83c-1.54-.41-3.1-.75-4.69-1.03l.87-4.92c1.73.3,3.43.67,5.11,1.12Z"/>
  <path d="M74.49,113.38l1.29,4.83c-1.68.45-3.38.82-5.11,1.12l-.87-4.92c1.59-.28,3.15-.62,4.69-1.03Z"/>
  <path class="cls-2" d="M75.27,20.19c.09,1.06.17,4.43-.01,5.36-.2,1.08-1.11.56-1.69.1-.57-.45-3.83-3.74-3.83-4.2,0-.6,1.97-1.58,2.5-1.78.56-.22,2.38-.84,2.81-.41.2.2.2.65.22.93ZM74.55,25.47c.21-.25-.31-1.57-.89-1.43-.13.15.38,1.57.89,1.43Z"/>
  <path class="cls-2" d="M75.28,31.98c.13,1,.13,4.54-.02,5.53-.06.38-.2.76-.62.82-.86.13-4.91-1.46-4.91-2.42l4.59-4.7c.61-.17.88.22.96.77ZM73.84,33.5c.54.18.96-1.37.89-1.43-.49-.45-1.12,1.12-.89,1.43Z"/>
  <path d="M60.14,94.22c-.18,2.21-3.24,5.32-6.55,5.71-.75.09-1.94-.3-2.41.36,6.12.46,12.26.43,18.38,0,.03-.26-.47-.32-.64-.34-.65-.07-1.32.05-1.95-.02-3.18-.36-5.99-2.46-6.51-5.71h-.32ZM74.79,99.25c1.16.18,2.79.31,3.69,1.04-1.84.48-3.73.85-5.62,1.07-7.64.9-17.52.89-25.15,0-1.89-.22-3.79-.58-5.62-1.07-.06-.07.1-.22.18-.27,1.61-1.03,8.11-1.12,10.25-1.34,3.4-.35,6.2-1.86,6.52-5.62.66-7.68-.49-16.31-.03-24.09-1.15-5.08-5.77-4.66-8.04-9.63-1.75-3.84-2.8-7.4-5.68-10.74-1.68-1.96-4.14-2.73-6.06-4.47-2.95-2.67-6.13-8.74-5.27-12.78.19-.9,1.22-1.95,2.15-1.95h8.71v1.24h-1.49c.06.12,2.56,5.03,3.75,7.33-2.84-.11-6.65.14-9.15,1.64-.74.44.52,1.69.95,2.19,1.8,2.11,3.4,2.66,5.51,4.13,1.88,1.32,3.87,4.3,5.01,6.32,1.75,3.11,2.56,7.58,5.27,9.82,2.13,1.76,3.76,1.8,5.11,4.71.2.43.34,1.74.7.94,1.82-4.06,2.18-3.08,5.24-5.47,2.89-2.27,3.42-6.35,5.09-9.46.72-1.36,1.6-2.75,2.62-4.02l1.02.78c-2.22,2.86-3.41,6.56-4.86,9.79-2.22,4.97-6.91,4.55-8.04,9.63.47,7.78-.69,16.41-.03,24.09.33,3.76,3.11,5.27,6.52,5.62,2.25.23,4.45.21,6.75.57Z"/>
  <path class="cls-10" d="M74.73,32.07c.07.06-.35,1.61-.89,1.43-.23-.31.4-1.88.89-1.43Z"/>
  <path class="cls-8" d="M73.66,24.04c.58-.14,1.1,1.18.89,1.43-.51.14-1.02-1.28-.89-1.43Z"/>
  <path d="M74.49,7.12l-1.3,4.83c-1.39-.37-2.82-.68-4.26-.93l.87-4.93c1.59.28,3.15.62,4.69,1.03Z"/>
  <path class="cls-5" d="M73.19,108.55l1.3,4.83c-1.54.41-3.1.75-4.69,1.03l-.87-4.93c1.44-.25,2.87-.56,4.26-.93Z"/>
  <path class="cls-4" d="M77.05,45.29c-1.34.92-2.56,2.13-3.62,3.48-1.02,1.27-1.9,2.66-2.62,4.02-1.09-.37-1.8.24-2.94.18-1.91-.1-4.16-.92-6.07-1.08-1.9-.16-3.61.13-5.44.54-.11-.21-.37-.81-.37-.81.83-.51,1.83-1.6,2.22-2.42,2.35-4.95-2.65-9.71-7.56-7.66-.57-1.12-1.21-2.27-1.79-3.39,3.9.58,6.95,3.12,10.41,4.67,5.69,2.55,11.61,3.09,17.78,2.47Z"/>
  <path class="cls-2" d="M73.04,29.4c.29,0,.4.94.1,1.17l-4.02,4.01c-.99.68-1.82-1.22-2.14-1.98-.39-.9-1.02-2.38-.37-3.2h6.43ZM71.16,30.82c.35.14,1.88-.38,1.43-.89-.06-.06-1.6.35-1.43.89Z"/>
  <path class="cls-7" d="M73.14,26.8c.32.55.24,1.21-.46,1.34-.99.19-4.24.09-5.36.01-.33-.02-.65-.05-.95-.21-.47-1.02,1.21-5.3,2.2-5.33.32-.01.58.26.81.44.44.34,3.56,3.41,3.76,3.75ZM71.16,26.72c.02.7.91.75,1.43.71-.26-.54-.85-.78-1.43-.71Z"/>
  <path class="cls-8" d="M72.59,29.93c.45.51-1.08,1.03-1.43.89-.17-.54,1.37-.95,1.43-.89Z"/>
  <path class="cls-8" d="M72.59,27.43c-.52.04-1.41-.01-1.43-.71.58-.07,1.17.17,1.43.71Z"/>
  <path d="M70.67,1.17l-.87,4.92c-1.57-.27-3.15-.48-4.76-.62l.44-4.98c1.75.15,3.48.38,5.19.68Z"/>
  <path class="cls-5" d="M69.8,114.41l.87,4.92c-1.71.3-3.44.53-5.19.68l-.44-4.98c1.61-.14,3.19-.35,4.76-.62Z"/>
  <path class="cls-1" d="M67.87,52.97c1.14.06,1.85-.55,2.94-.18-1.67,3.11-2.2,7.19-5.09,9.46-3.06,2.39-3.42,1.41-5.24,5.47-.36.8-.5-.51-.7-.94-1.35-2.91-2.98-2.95-5.11-4.71-2.71-2.24-3.52-6.71-5.27-9.82.51.02,1.22.2,1.71.18.26,0,.35-.04.37-.04.56.11,1.07.23,1.6.19.92.03,1.49-.33,1.49-.33,0,0,1.72,4.21,2.6,4.3.47.04.82-.33.79-.8-.01-.18-1.37-2.86-1.6-3.32,1.83-.41,3.54-.7,5.44-.54,1.91.16,4.16.98,6.07,1.08Z"/>
  <path class="cls-5" d="M69.8,6.09l-.87,4.93c-1.42-.25-2.86-.44-4.32-.57l.43-4.98c1.61.14,3.19.35,4.76.62Z"/>
  <path d="M68.93,109.48l.87,4.93c-1.57.27-3.15.48-4.76.62l-.43-4.98c1.46-.13,2.9-.32,4.32-.57Z"/>
  <path class="cls-3" d="M68.92,99.95c.17.02.67.08.64.34-6.12.43-12.26.46-18.38,0,.47-.66,1.66-.27,2.41-.36,3.31-.39,6.37-3.5,6.55-5.71h.32c.52,3.25,3.33,5.35,6.51,5.71.63.07,1.3-.05,1.95.02Z"/>
  <path class="cls-5" d="M65.48.49l-.44,4.98c-1.58-.14-3.17-.22-4.79-.22V.25c1.76,0,3.5.09,5.23.24Z"/>
  <path d="M65.04,115.03l.44,4.98c-1.73.15-3.47.24-5.23.24v-5c1.62,0,3.21-.08,4.79-.22Z"/>
  <path d="M65.04,5.47l-.43,4.98c-1.44-.12-2.89-.2-4.36-.2v-5c1.62,0,3.21.08,4.79.22Z"/>
  <path class="cls-5" d="M64.61,110.05l.43,4.98c-1.58.14-3.17.22-4.79.22v-5c1.47,0,2.92-.08,4.36-.2Z"/>
  <path class="cls-5" d="M60.25,115.25v5c-1.76,0-3.5-.09-5.23-.24l.44-4.98c1.58.14,3.17.22,4.79.22Z"/>
  <path d="M60.25,110.25v5c-1.62,0-3.21-.08-4.79-.22l.43-4.98c1.44.12,2.89.2,4.36.2Z"/>
  <path class="cls-5" d="M60.25,5.25v5c-1.47,0-2.92.08-4.36.2l-.43-4.98c1.58-.14,3.17-.22,4.79-.22Z"/>
  <path d="M60.25.25v5c-1.62,0-3.21.08-4.79.22l-.44-4.98c1.73-.15,3.47-.24,5.23-.24Z"/>
  <path class="cls-3" d="M57.96,55.75c.03.47-.32.84-.79.8-.88-.09-2.6-4.3-2.6-4.3.07-.01,1.32-.58,1.42-.63-.05.03.26.6.37.81.23.46,1.59,3.14,1.6,3.32Z"/>
  <path class="cls-4" d="M57.92,46.17c.25,2.47-1.37,5.17-4.58,5.05.03-.01.06-.02.1-.04,3.12.05,4.7-2.58,4.48-5.01Z"/>
  <path class="cls-4" d="M57.92,46.17c.22,2.43-1.36,5.06-4.48,5.01.68-.25,1.65-.5,2.52-1.63,0,0,0-.01.01-.01.57-.63.9-1.35,1.02-2.1.02-.08.04-.15.04-.23.11-.64.02-1.31-.22-1.93-.03-.12-.08-.24-.14-.35-.22-.48-.54-.93-.93-1.31-.27-.26-.58-.49-.92-.67-.08-.05-.17-.1-.26-.14-.01-.01-.02-.01-.04-.02-.11-.05-.23-.1-.36-.14-.1-.04-.21-.08-.33-.11-.16-.04-.33-.08-.5-.11,0-.33.78-.19.96-.16.62.11,1.16.31,1.62.59.17.1.34.22.49.35.04.03.09.07.13.11.1.08.19.17.27.27.05.05.09.1.14.15.35.43.61.92.78,1.44l.06.21c.05.17.08.33.1.5.02.09.03.18.04.27t0,.01Z"/>
  <path class="cls-4" d="M57.92,46.16c-.01-.09-.02-.18-.04-.27.02.09.04.18.04.27Z"/>
  <path class="cls-4" d="M57.78,45.39l-.06-.21c.03.07.05.14.06.21Z"/>
  <path class="cls-6" d="M57.03,47.21c.08-.65,0-1.32-.22-1.93.24.62.33,1.29.22,1.93Z"/>
  <path class="cls-6" d="M56.99,47.44c.02-.07.03-.15.04-.23,0,.08-.02.15-.04.23Z"/>
  <path class="cls-4" d="M56.83,47.97c.07-.17.13-.35.16-.53-.12.75-.45,1.47-1.02,2.1.3-.4.6-.91.86-1.57Z"/>
  <path class="cls-4" d="M56.94,43.74c-.05-.05-.09-.1-.14-.15.05.04.09.09.14.15Z"/>
  <path class="cls-6" d="M56.81,45.28c-.05-.12-.09-.23-.14-.35.06.11.11.23.14.35Z"/>
  <path class="cls-4" d="M56.8,43.59c-.08-.1-.17-.19-.27-.27.09.08.18.17.27.27Z"/>
  <path class="cls-6" d="M55.91,42.86c.17.1.34.22.49.35-.15-.13-.32-.25-.49-.35Z"/>
  <path class="cls-3" d="M55.99,51.62s.26.6.37.81c-.11-.21-.42-.78-.37-.81Z"/>
  <path d="M55.46,5.47l.43,4.98c-1.46.13-2.9.32-4.32.57l-.87-4.93c1.57-.27,3.15-.48,4.76-.62Z"/>
  <path class="cls-5" d="M55.89,110.05l-.43,4.98c-1.61-.14-3.19-.35-4.76-.62l.87-4.93c1.42.25,2.86.44,4.32.57Z"/>
  <path class="cls-6" d="M55.17,50.26c.3-.22.57-.45.79-.71-.87,1.13-1.84,1.38-2.52,1.63h-.1l1.83-.92Z"/>
  <path class="cls-5" d="M55.02.49l.44,4.98c-1.61.14-3.19.35-4.76.62l-.87-4.92c1.71-.3,3.44-.53,5.19-.68Z"/>
  <path d="M55.46,115.03l-.44,4.98c-1.75-.15-3.48-.38-5.19-.68l.87-4.92c1.57.27,3.15.48,4.76.62Z"/>
  <path class="cls-6" d="M54.82,42.95c-.08-.05-.17-.1-.26-.14.09.04.18.09.26.14Z"/>
  <path class="cls-6" d="M54.52,42.79c-.11-.05-.23-.1-.36-.14.13.04.25.09.36.14Z"/>
  <path class="cls-6" d="M54.16,42.65c-.11-.04-.22-.08-.33-.11.12.03.23.07.33.11Z"/>
  <path class="cls-3" d="M52.05,44.53c.09.58-.57.97-1.04.67-.35-.21-1.16-2.09-1.43-2.59l-.18-.33c-.78-1.43-1.57-2.87-2.32-4.31-1.19-2.3-3.69-7.21-3.75-7.33h1.49c1.27,2.54,2.75,4.99,4.04,7.51.58,1.12,1.22,2.27,1.79,3.39.22.43,1.37,2.76,1.4,2.99Z"/>
  <path class="cls-5" d="M50.7,6.09l.87,4.93c-1.44.25-2.87.56-4.26.93l-1.3-4.83c1.54-.41,3.1-.75,4.69-1.03Z"/>
  <path d="M51.57,109.48l-.87,4.93c-1.59-.28-3.15-.62-4.69-1.03l1.3-4.83c1.39.37,2.82.68,4.26.93Z"/>
  <path class="cls-4" d="M51.48,52.39s-.11.04-.37.04c-.49.02-1.2-.16-1.71-.18-1.14-2.02-3.13-5-5.01-6.32-2.11-1.47-3.71-2.02-5.51-4.13-.43-.5-1.69-1.75-.95-2.19,2.5-1.5,6.31-1.75,9.15-1.64.75,1.44,1.54,2.88,2.32,4.31-1.33,1-1.96,3.06-1.96,4.52,0,2.98,2.55,5.41,4.04,5.59Z"/>
  <path d="M49.83,1.17l.87,4.92c-1.59.28-3.15.62-4.69,1.03l-1.29-4.83c1.68-.45,3.38-.82,5.11-1.12Z"/>
  <path class="cls-5" d="M50.7,114.41l-.87,4.92c-1.73-.3-3.43-.67-5.11-1.12l1.29-4.83c1.54.41,3.1.75,4.69,1.03Z"/>
  <path d="M46.01,7.12l1.3,4.83c-1.41.38-2.8.81-4.16,1.3l-1.72-4.69c1.5-.55,3.03-1.02,4.58-1.44Z"/>
  <path class="cls-5" d="M47.31,108.55l-1.3,4.83c-1.55-.42-3.08-.89-4.58-1.44l1.72-4.69c1.36.49,2.75.92,4.16,1.3Z"/>
  <path class="cls-5" d="M44.72,2.29l1.29,4.83c-1.55.42-3.08.89-4.58,1.44l-1.71-4.7c1.64-.6,3.31-1.12,5-1.57Z"/>
  <path d="M46.01,113.38l-1.29,4.83c-1.7-.45-3.36-.97-5-1.57l1.71-4.7c1.5.55,3.03,1.02,4.58,1.44Z"/>
  <path class="cls-5" d="M41.43,8.56l1.72,4.69c-1.38.5-2.72,1.07-4.03,1.68l-2.11-4.53c1.44-.67,2.91-1.3,4.42-1.84Z"/>
  <path d="M43.15,107.25l-1.72,4.69c-1.51-.54-2.98-1.17-4.42-1.84l2.11-4.53c1.31.61,2.65,1.18,4.03,1.68Z"/>
  <path class="cls-3" d="M38.97,19.39l3.83,7.5c-.53-.05-1.25.22-1.59-.28l-3.32-6.32c-.36-.92.26-1.41,1.08-.9Z"/>
  <path d="M39.72,3.86l1.71,4.7c-1.51.54-2.98,1.17-4.42,1.84l-2.12-4.53c1.58-.74,3.19-1.41,4.83-2.01Z"/>
  <path class="cls-5" d="M41.43,111.94l-1.71,4.7c-1.64-.6-3.25-1.27-4.83-2.01l2.12-4.53c1.44.67,2.91,1.3,4.42,1.84Z"/>
  <path d="M37.01,10.4l2.11,4.53c-1.32.62-2.61,1.3-3.87,2.02l-2.5-4.33c1.38-.79,2.8-1.54,4.26-2.22Z"/>
  <path class="cls-5" d="M39.12,105.57l-2.11,4.53c-1.46-.68-2.88-1.43-4.26-2.22l2.5-4.33c1.26.72,2.55,1.4,3.87,2.02Z"/>
  <path class="cls-5" d="M34.89,5.87l2.12,4.53c-1.46.68-2.88,1.43-4.26,2.22l-2.5-4.33c1.51-.87,3.06-1.68,4.64-2.42Z"/>
  <path d="M37.01,110.1l-2.12,4.53c-1.58-.74-3.13-1.55-4.64-2.42l2.5-4.33c1.38.79,2.8,1.54,4.26,2.22Z"/>
  <path class="cls-5" d="M32.75,12.62l2.5,4.33c-1.26.73-2.48,1.52-3.67,2.35l-2.87-4.1c1.31-.91,2.66-1.77,4.04-2.58Z"/>
  <path d="M35.25,103.55l-2.5,4.33c-1.38-.81-2.73-1.67-4.04-2.58l2.87-4.1c1.19.83,2.41,1.62,3.67,2.35Z"/>
  <path d="M30.25,8.29l2.5,4.33c-1.38.81-2.73,1.67-4.04,2.58l-2.87-4.09c1.43-1,2.9-1.94,4.41-2.82Z"/>
  <path class="cls-5" d="M32.75,107.88l-2.5,4.33c-1.51-.88-2.98-1.82-4.41-2.82l2.87-4.09c1.31.91,2.66,1.77,4.04,2.58Z"/>
  <path d="M28.71,15.2l2.87,4.1c-1.2.84-2.35,1.72-3.46,2.65l-3.22-3.83c1.23-1.02,2.5-2,3.81-2.92Z"/>
  <path class="cls-5" d="M31.58,101.2l-2.87,4.1c-1.31-.92-2.58-1.9-3.81-2.92l3.22-3.83c1.11.93,2.26,1.81,3.46,2.65Z"/>
  <path class="cls-5" d="M25.84,11.11l2.87,4.09c-1.31.92-2.58,1.9-3.81,2.92l-3.21-3.83c1.33-1.12,2.72-2.18,4.15-3.18Z"/>
  <path d="M28.71,105.3l-2.87,4.09c-1.43-1-2.82-2.06-4.15-3.18l3.21-3.83c1.23,1.02,2.5,2,3.81,2.92Z"/>
  <path class="cls-5" d="M24.9,18.12l3.22,3.83c-1.12.94-2.2,1.92-3.23,2.94l-3.53-3.53c1.13-1.13,2.32-2.21,3.54-3.24Z"/>
  <path d="M28.12,98.55l-3.22,3.83c-1.22-1.03-2.41-2.11-3.54-3.24l3.53-3.53c1.03,1.02,2.11,2,3.23,2.94Z"/>
  <path d="M21.69,14.29l3.21,3.83c-1.22,1.03-2.41,2.11-3.54,3.24l-3.54-3.54c1.24-1.23,2.53-2.4,3.87-3.53Z"/>
  <path class="cls-5" d="M24.9,102.38l-3.21,3.83c-1.34-1.13-2.63-2.3-3.87-3.53l3.54-3.54c1.13,1.13,2.32,2.21,3.54,3.24Z"/>
  <path class="cls-5" d="M24.89,95.61l-3.53,3.53c-1.13-1.13-2.21-2.32-3.24-3.54l3.83-3.22c.94,1.12,1.92,2.2,2.94,3.23Z"/>
  <path d="M21.36,21.36l3.53,3.53c-1.02,1.03-2,2.11-2.94,3.23l-3.83-3.22c1.03-1.22,2.11-2.41,3.24-3.54Z"/>
  <path class="cls-5" d="M18.12,24.9l3.83,3.22c-.93,1.11-1.81,2.26-2.65,3.46l-4.1-2.87c.92-1.31,1.9-2.58,2.92-3.81Z"/>
  <path d="M21.95,92.38l-3.83,3.22c-1.02-1.23-2-2.5-2.92-3.81l4.1-2.87c.84,1.2,1.72,2.35,2.65,3.46Z"/>
  <path d="M21.36,99.14l-3.54,3.54c-1.23-1.24-2.4-2.53-3.53-3.87l3.83-3.21c1.03,1.22,2.11,2.41,3.24,3.54Z"/>
  <path class="cls-5" d="M17.82,17.82l3.54,3.54c-1.13,1.13-2.21,2.32-3.24,3.54l-3.83-3.21c1.13-1.34,2.3-2.63,3.53-3.87Z"/>
  <path d="M15.2,28.71l4.1,2.87c-.83,1.19-1.62,2.41-2.35,3.67l-4.33-2.5c.81-1.38,1.67-2.73,2.58-4.04Z"/>
  <path class="cls-5" d="M19.3,88.92l-4.1,2.87c-.91-1.31-1.77-2.66-2.58-4.04l4.33-2.5c.73,1.26,1.52,2.48,2.35,3.67Z"/>
  <path d="M14.29,21.69l3.83,3.21c-1.02,1.23-2,2.5-2.92,3.81l-4.09-2.87c1-1.43,2.06-2.82,3.18-4.15Z"/>
  <path class="cls-5" d="M18.12,95.6l-3.83,3.21c-1.12-1.33-2.18-2.72-3.18-4.15l4.09-2.87c.92,1.31,1.9,2.58,2.92,3.81Z"/>
  <path class="cls-5" d="M12.62,32.75l4.33,2.5c-.72,1.26-1.4,2.55-2.02,3.87l-4.53-2.11c.68-1.46,1.43-2.88,2.22-4.26Z"/>
  <path d="M16.95,85.25l-4.33,2.5c-.79-1.38-1.54-2.8-2.22-4.26l4.53-2.11c.62,1.32,1.3,2.61,2.02,3.87Z"/>
  <path class="cls-5" d="M11.11,25.84l4.09,2.87c-.91,1.31-1.77,2.66-2.58,4.04l-4.33-2.5c.88-1.51,1.82-2.98,2.82-4.41Z"/>
  <path d="M15.2,91.79l-4.09,2.87c-1-1.43-1.94-2.9-2.82-4.41l4.33-2.5c.81,1.38,1.67,2.73,2.58,4.04Z"/>
  <path d="M10.4,37.01l4.53,2.11c-.61,1.31-1.18,2.65-1.68,4.03l-4.69-1.72c.54-1.51,1.17-2.98,1.84-4.42Z"/>
  <path class="cls-5" d="M14.93,81.38l-4.53,2.11c-.67-1.44-1.3-2.91-1.84-4.42l4.69-1.72c.5,1.38,1.07,2.72,1.68,4.03Z"/>
  <path class="cls-5" d="M8.56,41.43l4.69,1.72c-.49,1.36-.92,2.75-1.3,4.16l-4.83-1.3c.42-1.55.89-3.08,1.44-4.58Z"/>
  <path d="M13.25,77.35l-4.69,1.72c-.55-1.5-1.02-3.03-1.44-4.58l4.83-1.3c.38,1.41.81,2.8,1.3,4.16Z"/>
  <path d="M8.29,30.25l4.33,2.5c-.79,1.38-1.54,2.8-2.22,4.26l-4.53-2.12c.74-1.58,1.55-3.13,2.42-4.64Z"/>
  <path class="cls-5" d="M12.62,87.75l-4.33,2.5c-.87-1.51-1.68-3.06-2.42-4.64l4.53-2.12c.68,1.46,1.43,2.88,2.22,4.26Z"/>
  <path d="M7.12,46.01l4.83,1.3c-.37,1.39-.68,2.82-.93,4.26l-4.93-.87c.28-1.59.62-3.15,1.03-4.69Z"/>
  <path class="cls-5" d="M11.95,73.19l-4.83,1.3c-.41-1.54-.75-3.1-1.03-4.69l4.93-.87c.25,1.44.56,2.87.93,4.26Z"/>
  <path class="cls-5" d="M6.09,50.7l4.93.87c-.25,1.42-.44,2.86-.57,4.32l-4.98-.43c.14-1.61.35-3.19.62-4.76Z"/>
  <path d="M11.02,68.93l-4.93.87c-.27-1.57-.48-3.15-.62-4.76l4.98-.43c.13,1.46.32,2.9.57,4.32Z"/>
  <path d="M5.47,55.46l4.98.43c-.12,1.44-.2,2.89-.2,4.36h-5c0-1.62.08-3.21.22-4.79Z"/>
  <path class="cls-5" d="M10.45,64.61l-4.98.43c-.14-1.58-.22-3.17-.22-4.79h5c0,1.47.08,2.92.2,4.36Z"/>
  <path class="cls-5" d="M5.87,34.89l4.53,2.12c-.67,1.44-1.3,2.91-1.84,4.42l-4.7-1.71c.6-1.64,1.27-3.25,2.01-4.83Z"/>
  <path d="M10.4,83.49l-4.53,2.12c-.74-1.58-1.41-3.19-2.01-4.83l4.7-1.71c.54,1.51,1.17,2.98,1.84,4.42Z"/>
  <path d="M3.86,39.72l4.7,1.71c-.55,1.5-1.02,3.03-1.44,4.58l-4.83-1.29c.45-1.7.97-3.36,1.57-5Z"/>
  <path class="cls-5" d="M8.56,79.07l-4.7,1.71c-.6-1.64-1.12-3.3-1.57-5l4.83-1.29c.42,1.55.89,3.08,1.44,4.58Z"/>
  <path class="cls-5" d="M2.29,44.72l4.83,1.29c-.41,1.54-.75,3.1-1.03,4.69l-4.92-.87c.3-1.73.67-3.43,1.12-5.11Z"/>
  <path d="M7.12,74.49l-4.83,1.29c-.45-1.68-.82-3.38-1.12-5.11l4.92-.87c.28,1.59.62,3.15,1.03,4.69Z"/>
  <path d="M1.17,49.83l4.92.87c-.27,1.57-.48,3.15-.62,4.76l-4.98-.44c.15-1.75.38-3.48.68-5.19Z"/>
  <path class="cls-5" d="M6.09,69.8l-4.92.87c-.3-1.71-.53-3.44-.68-5.19l4.98-.44c.14,1.61.35,3.19.62,4.76Z"/>
  <path class="cls-5" d="M.49,55.02l4.98.44c-.14,1.58-.22,3.17-.22,4.79H.25c0-1.76.09-3.5.24-5.23Z"/>
  <path d="M5.47,65.04l-4.98.44c-.15-1.73-.24-3.47-.24-5.23h5c0,1.62.08,3.21.22,4.79Z"/>
</svg>